<mxfile host="Electron" modified="2023-05-02T18:15:23.647Z" agent="Mozilla/5.0 (Windows NT 10.0; Win64; x64) AppleWebKit/537.36 (KHTML, like Gecko) draw.io/21.2.1 Chrome/112.0.5615.87 Electron/24.1.2 Safari/537.36" etag="jr7zJLahyrBbO5DHeddq" version="21.2.1" type="device">
  <diagram name="Page-1" id="6ra1ZoB-0tSvTdrp3I-K">
    <mxGraphModel dx="1434" dy="1244" grid="1" gridSize="10" guides="1" tooltips="1" connect="1" arrows="1" fold="1" page="0" pageScale="1" pageWidth="1920" pageHeight="1200" math="0" shadow="0">
      <root>
        <mxCell id="0" />
        <mxCell id="1" parent="0" />
        <mxCell id="lLa_LwG2R3_Bs0P1FthE-1" value="many_theta_hats" style="rounded=0;whiteSpace=wrap;html=1;" parent="1" vertex="1">
          <mxGeometry x="120" y="100" width="120" height="60" as="geometry" />
        </mxCell>
        <mxCell id="lLa_LwG2R3_Bs0P1FthE-2" value="MCEM_update" style="rounded=0;whiteSpace=wrap;html=1;" parent="1" vertex="1">
          <mxGeometry x="280" y="100" width="120" height="60" as="geometry" />
        </mxCell>
        <mxCell id="lLa_LwG2R3_Bs0P1FthE-22" style="edgeStyle=orthogonalEdgeStyle;rounded=0;orthogonalLoop=1;jettySize=auto;html=1;exitX=0;exitY=0.25;exitDx=0;exitDy=0;entryX=1;entryY=0.75;entryDx=0;entryDy=0;" parent="1" source="lLa_LwG2R3_Bs0P1FthE-4" target="lLa_LwG2R3_Bs0P1FthE-1" edge="1">
          <mxGeometry relative="1" as="geometry" />
        </mxCell>
        <mxCell id="lLa_LwG2R3_Bs0P1FthE-4" value="get_ESS" style="rounded=0;whiteSpace=wrap;html=1;" parent="1" vertex="1">
          <mxGeometry x="280" y="210" width="120" height="60" as="geometry" />
        </mxCell>
        <mxCell id="Tvt2aNcmAm8vrqxFh52j-1" style="edgeStyle=orthogonalEdgeStyle;rounded=0;orthogonalLoop=1;jettySize=auto;html=1;exitX=0;exitY=1;exitDx=0;exitDy=0;entryX=1;entryY=0.25;entryDx=0;entryDy=0;" edge="1" parent="1" source="lLa_LwG2R3_Bs0P1FthE-6" target="lLa_LwG2R3_Bs0P1FthE-4">
          <mxGeometry relative="1" as="geometry" />
        </mxCell>
        <mxCell id="lLa_LwG2R3_Bs0P1FthE-6" value="all_Xs, all_weights" style="ellipse;whiteSpace=wrap;html=1;" parent="1" vertex="1">
          <mxGeometry x="440" y="90" width="120" height="80" as="geometry" />
        </mxCell>
        <mxCell id="lLa_LwG2R3_Bs0P1FthE-8" value="" style="endArrow=classic;html=1;rounded=0;entryX=1;entryY=0.5;entryDx=0;entryDy=0;exitX=0;exitY=0.5;exitDx=0;exitDy=0;" parent="1" source="lLa_LwG2R3_Bs0P1FthE-2" target="lLa_LwG2R3_Bs0P1FthE-1" edge="1">
          <mxGeometry width="50" height="50" relative="1" as="geometry">
            <mxPoint x="400" y="420" as="sourcePoint" />
            <mxPoint x="450" y="370" as="targetPoint" />
          </mxGeometry>
        </mxCell>
        <mxCell id="lLa_LwG2R3_Bs0P1FthE-9" value="" style="endArrow=classic;html=1;rounded=0;exitX=0;exitY=0.5;exitDx=0;exitDy=0;entryX=1;entryY=0.5;entryDx=0;entryDy=0;" parent="1" source="lLa_LwG2R3_Bs0P1FthE-6" target="lLa_LwG2R3_Bs0P1FthE-2" edge="1">
          <mxGeometry width="50" height="50" relative="1" as="geometry">
            <mxPoint x="550" y="180" as="sourcePoint" />
            <mxPoint x="530" y="-10" as="targetPoint" />
          </mxGeometry>
        </mxCell>
        <mxCell id="lLa_LwG2R3_Bs0P1FthE-21" style="edgeStyle=orthogonalEdgeStyle;rounded=0;orthogonalLoop=1;jettySize=auto;html=1;exitX=0;exitY=0.75;exitDx=0;exitDy=0;entryX=1;entryY=0.25;entryDx=0;entryDy=0;" parent="1" source="lLa_LwG2R3_Bs0P1FthE-10" target="lLa_LwG2R3_Bs0P1FthE-2" edge="1">
          <mxGeometry relative="1" as="geometry" />
        </mxCell>
        <mxCell id="lLa_LwG2R3_Bs0P1FthE-10" value="estimate_sigma2" style="rounded=0;whiteSpace=wrap;html=1;" parent="1" vertex="1">
          <mxGeometry x="440" width="120" height="60" as="geometry" />
        </mxCell>
        <mxCell id="lLa_LwG2R3_Bs0P1FthE-14" value="" style="edgeStyle=orthogonalEdgeStyle;rounded=0;orthogonalLoop=1;jettySize=auto;html=1;" parent="1" source="lLa_LwG2R3_Bs0P1FthE-13" target="lLa_LwG2R3_Bs0P1FthE-10" edge="1">
          <mxGeometry relative="1" as="geometry" />
        </mxCell>
        <mxCell id="lLa_LwG2R3_Bs0P1FthE-13" value="beta_hat" style="ellipse;whiteSpace=wrap;html=1;" parent="1" vertex="1">
          <mxGeometry x="600" y="-10" width="120" height="80" as="geometry" />
        </mxCell>
        <mxCell id="lLa_LwG2R3_Bs0P1FthE-20" value="" style="edgeStyle=orthogonalEdgeStyle;rounded=0;orthogonalLoop=1;jettySize=auto;html=1;" parent="1" source="lLa_LwG2R3_Bs0P1FthE-15" target="lLa_LwG2R3_Bs0P1FthE-6" edge="1">
          <mxGeometry relative="1" as="geometry" />
        </mxCell>
        <mxCell id="lLa_LwG2R3_Bs0P1FthE-15" value="get_importance_sample" style="rounded=0;whiteSpace=wrap;html=1;" parent="1" vertex="1">
          <mxGeometry x="600" y="100" width="150" height="60" as="geometry" />
        </mxCell>
        <mxCell id="lLa_LwG2R3_Bs0P1FthE-26" style="edgeStyle=orthogonalEdgeStyle;rounded=0;orthogonalLoop=1;jettySize=auto;html=1;exitX=0;exitY=0.75;exitDx=0;exitDy=0;entryX=1;entryY=0.25;entryDx=0;entryDy=0;" parent="1" source="lLa_LwG2R3_Bs0P1FthE-23" target="lLa_LwG2R3_Bs0P1FthE-15" edge="1">
          <mxGeometry relative="1" as="geometry" />
        </mxCell>
        <mxCell id="lLa_LwG2R3_Bs0P1FthE-23" value="propose_X" style="rounded=0;whiteSpace=wrap;html=1;" parent="1" vertex="1">
          <mxGeometry x="790" y="-10" width="120" height="60" as="geometry" />
        </mxCell>
        <mxCell id="lLa_LwG2R3_Bs0P1FthE-25" value="" style="edgeStyle=orthogonalEdgeStyle;rounded=0;orthogonalLoop=1;jettySize=auto;html=1;" parent="1" source="lLa_LwG2R3_Bs0P1FthE-24" target="lLa_LwG2R3_Bs0P1FthE-15" edge="1">
          <mxGeometry relative="1" as="geometry" />
        </mxCell>
        <mxCell id="lLa_LwG2R3_Bs0P1FthE-24" value="get_all_imp_weights&lt;br&gt;" style="rounded=0;whiteSpace=wrap;html=1;" parent="1" vertex="1">
          <mxGeometry x="790" y="100" width="120" height="60" as="geometry" />
        </mxCell>
        <mxCell id="lLa_LwG2R3_Bs0P1FthE-28" value="" style="edgeStyle=orthogonalEdgeStyle;rounded=0;orthogonalLoop=1;jettySize=auto;html=1;" parent="1" source="lLa_LwG2R3_Bs0P1FthE-27" target="lLa_LwG2R3_Bs0P1FthE-23" edge="1">
          <mxGeometry relative="1" as="geometry" />
        </mxCell>
        <mxCell id="lLa_LwG2R3_Bs0P1FthE-27" value="propose_one_X" style="rounded=0;whiteSpace=wrap;html=1;" parent="1" vertex="1">
          <mxGeometry x="950" y="-10" width="120" height="60" as="geometry" />
        </mxCell>
        <mxCell id="lLa_LwG2R3_Bs0P1FthE-30" style="edgeStyle=orthogonalEdgeStyle;rounded=0;orthogonalLoop=1;jettySize=auto;html=1;exitX=0;exitY=0.75;exitDx=0;exitDy=0;entryX=1;entryY=0.25;entryDx=0;entryDy=0;" parent="1" source="lLa_LwG2R3_Bs0P1FthE-29" target="lLa_LwG2R3_Bs0P1FthE-27" edge="1">
          <mxGeometry relative="1" as="geometry" />
        </mxCell>
        <mxCell id="lLa_LwG2R3_Bs0P1FthE-46" style="edgeStyle=orthogonalEdgeStyle;rounded=0;orthogonalLoop=1;jettySize=auto;html=1;exitX=1;exitY=0.25;exitDx=0;exitDy=0;entryX=0.819;entryY=-0.033;entryDx=0;entryDy=0;entryPerimeter=0;" parent="1" source="lLa_LwG2R3_Bs0P1FthE-29" target="lLa_LwG2R3_Bs0P1FthE-39" edge="1">
          <mxGeometry relative="1" as="geometry" />
        </mxCell>
        <mxCell id="lLa_LwG2R3_Bs0P1FthE-29" value="mu_X_given_Y" style="rounded=0;whiteSpace=wrap;html=1;" parent="1" vertex="1">
          <mxGeometry x="1110" y="-110" width="120" height="60" as="geometry" />
        </mxCell>
        <mxCell id="lLa_LwG2R3_Bs0P1FthE-32" value="" style="edgeStyle=orthogonalEdgeStyle;rounded=0;orthogonalLoop=1;jettySize=auto;html=1;" parent="1" source="lLa_LwG2R3_Bs0P1FthE-31" target="lLa_LwG2R3_Bs0P1FthE-27" edge="1">
          <mxGeometry relative="1" as="geometry" />
        </mxCell>
        <mxCell id="lLa_LwG2R3_Bs0P1FthE-47" style="edgeStyle=orthogonalEdgeStyle;rounded=0;orthogonalLoop=1;jettySize=auto;html=1;exitX=1;exitY=0.75;exitDx=0;exitDy=0;entryX=0.163;entryY=-0.05;entryDx=0;entryDy=0;entryPerimeter=0;" parent="1" source="lLa_LwG2R3_Bs0P1FthE-31" target="lLa_LwG2R3_Bs0P1FthE-39" edge="1">
          <mxGeometry relative="1" as="geometry" />
        </mxCell>
        <mxCell id="lLa_LwG2R3_Bs0P1FthE-31" value="var_X_given_Y" style="rounded=0;whiteSpace=wrap;html=1;" parent="1" vertex="1">
          <mxGeometry x="1110" y="-10" width="120" height="60" as="geometry" />
        </mxCell>
        <mxCell id="lLa_LwG2R3_Bs0P1FthE-36" style="edgeStyle=orthogonalEdgeStyle;rounded=0;orthogonalLoop=1;jettySize=auto;html=1;exitX=0;exitY=0.25;exitDx=0;exitDy=0;entryX=1;entryY=0.75;entryDx=0;entryDy=0;" parent="1" source="lLa_LwG2R3_Bs0P1FthE-33" target="lLa_LwG2R3_Bs0P1FthE-24" edge="1">
          <mxGeometry relative="1" as="geometry" />
        </mxCell>
        <mxCell id="lLa_LwG2R3_Bs0P1FthE-33" value="normalize_weights" style="rounded=0;whiteSpace=wrap;html=1;" parent="1" vertex="1">
          <mxGeometry x="950" y="210" width="120" height="60" as="geometry" />
        </mxCell>
        <mxCell id="lLa_LwG2R3_Bs0P1FthE-35" value="" style="edgeStyle=orthogonalEdgeStyle;rounded=0;orthogonalLoop=1;jettySize=auto;html=1;" parent="1" source="lLa_LwG2R3_Bs0P1FthE-34" target="lLa_LwG2R3_Bs0P1FthE-24" edge="1">
          <mxGeometry relative="1" as="geometry" />
        </mxCell>
        <mxCell id="lLa_LwG2R3_Bs0P1FthE-34" value="&lt;span style=&quot;color: rgb(0, 0, 0); font-family: Helvetica; font-style: normal; font-variant-ligatures: normal; font-variant-caps: normal; font-weight: 400; letter-spacing: normal; orphans: 2; text-align: center; text-indent: 0px; text-transform: none; widows: 2; word-spacing: 0px; -webkit-text-stroke-width: 0px; background-color: rgb(255, 255, 255); text-decoration-thickness: initial; text-decoration-style: initial; text-decoration-color: initial; float: none; display: inline !important;&quot;&gt;&lt;font style=&quot;font-size: 12px;&quot;&gt;get_all_log_raw_imp_weights&lt;/font&gt;&lt;/span&gt;" style="rounded=0;whiteSpace=wrap;html=1;" parent="1" vertex="1">
          <mxGeometry x="950" y="100" width="170" height="60" as="geometry" />
        </mxCell>
        <mxCell id="lLa_LwG2R3_Bs0P1FthE-38" value="" style="edgeStyle=orthogonalEdgeStyle;rounded=0;orthogonalLoop=1;jettySize=auto;html=1;" parent="1" source="lLa_LwG2R3_Bs0P1FthE-37" target="lLa_LwG2R3_Bs0P1FthE-34" edge="1">
          <mxGeometry relative="1" as="geometry" />
        </mxCell>
        <mxCell id="lLa_LwG2R3_Bs0P1FthE-37" value="one_log_raw_imp_weight" style="rounded=0;whiteSpace=wrap;html=1;" parent="1" vertex="1">
          <mxGeometry x="1160" y="100" width="150" height="60" as="geometry" />
        </mxCell>
        <mxCell id="lLa_LwG2R3_Bs0P1FthE-40" value="" style="edgeStyle=orthogonalEdgeStyle;rounded=0;orthogonalLoop=1;jettySize=auto;html=1;" parent="1" source="lLa_LwG2R3_Bs0P1FthE-39" target="lLa_LwG2R3_Bs0P1FthE-37" edge="1">
          <mxGeometry relative="1" as="geometry" />
        </mxCell>
        <mxCell id="lLa_LwG2R3_Bs0P1FthE-39" value="one_raw_imp_weight_term" style="rounded=0;whiteSpace=wrap;html=1;" parent="1" vertex="1">
          <mxGeometry x="1350" y="100" width="160" height="60" as="geometry" />
        </mxCell>
        <mxCell id="lLa_LwG2R3_Bs0P1FthE-44" style="edgeStyle=orthogonalEdgeStyle;rounded=0;orthogonalLoop=1;jettySize=auto;html=1;exitX=0;exitY=0.25;exitDx=0;exitDy=0;entryX=1;entryY=0.75;entryDx=0;entryDy=0;" parent="1" source="lLa_LwG2R3_Bs0P1FthE-43" target="lLa_LwG2R3_Bs0P1FthE-29" edge="1">
          <mxGeometry relative="1" as="geometry" />
        </mxCell>
        <mxCell id="lLa_LwG2R3_Bs0P1FthE-45" style="edgeStyle=orthogonalEdgeStyle;rounded=0;orthogonalLoop=1;jettySize=auto;html=1;exitX=0;exitY=0.75;exitDx=0;exitDy=0;entryX=1;entryY=0.25;entryDx=0;entryDy=0;" parent="1" source="lLa_LwG2R3_Bs0P1FthE-43" target="lLa_LwG2R3_Bs0P1FthE-31" edge="1">
          <mxGeometry relative="1" as="geometry" />
        </mxCell>
        <mxCell id="lLa_LwG2R3_Bs0P1FthE-43" value="get_eta" style="rounded=0;whiteSpace=wrap;html=1;" parent="1" vertex="1">
          <mxGeometry x="1270" y="-60" width="120" height="60" as="geometry" />
        </mxCell>
        <mxCell id="lLa_LwG2R3_Bs0P1FthE-51" value="" style="curved=1;endArrow=classic;html=1;rounded=0;exitX=0.75;exitY=0;exitDx=0;exitDy=0;entryX=0;entryY=0;entryDx=0;entryDy=0;" parent="1" source="lLa_LwG2R3_Bs0P1FthE-2" target="lLa_LwG2R3_Bs0P1FthE-13" edge="1">
          <mxGeometry width="50" height="50" relative="1" as="geometry">
            <mxPoint x="410" y="-120" as="sourcePoint" />
            <mxPoint x="460" y="-170" as="targetPoint" />
            <Array as="points">
              <mxPoint x="370" y="-80" />
              <mxPoint x="610" y="-80" />
            </Array>
          </mxGeometry>
        </mxCell>
      </root>
    </mxGraphModel>
  </diagram>
</mxfile>
